<?xml version="1.0" encoding="utf-8"?>
<!-- Generator: Adobe Illustrator 28.0.0, SVG Export Plug-In . SVG Version: 6.00 Build 0)  -->
<svg version="1.1" id="katman_1" xmlns="http://www.w3.org/2000/svg" xmlns:xlink="http://www.w3.org/1999/xlink" x="0px" y="0px"
	 viewBox="0 0 626.5 188.5" style="enable-background:new 0 0 626.5 188.5;" xml:space="preserve">
<style type="text/css">
	.st0{fill:#315EF7;}
	.st1{fill:#FF0844;}
	.st2{font-family:'Baloo';}
	.st3{font-size:62.6796px;}
</style>
<g>
	<path class="st0" d="M43.3,6.4H15.3C6.5,6.4,0,13,0,21.9v95.2c0,8.7,6.7,15.5,15.3,15.5h27.9c43.1,0,64.4-29.4,64.4-63.6
		C107.6,34.3,85.1,6.4,43.3,6.4z M45.1,102.6H31.2V36.1h13.7c19.8,0,31.7,14.4,31.7,32.8C76.6,87.5,64.7,102.6,45.1,102.6z"/>
	<path class="st0" d="M162.8,40.6c-26,0-47.1,20.7-47.1,46.7c0,26,20,47.1,48.5,47.1c15.9,0,24.5-4.5,28.3-6.7
		c4.5-2.5,7.8-5.9,7.8-12.4c0-6.9-6.1-11.9-12.4-11.9c-8.3,0-9.4,5.6-24.2,5.6c-10.6,0-15.9-9.2-16.8-12.1h45.4
		c8.5,0,14.6-4.9,14.6-13.2C207,62.4,188.6,40.6,162.8,40.6z M146.4,78.5c0.7-3.8,5.9-13.3,16.8-13.3c11.7,0,16.6,8.8,17.8,13.3
		H146.4z"/>
	<path class="st0" d="M257.1,40.6c-24.7,0-42,18-42,41.5v37.1c0,8.1,7,15.1,15.3,15.1c8.3,0,15.3-7,15.3-15.1V79.9
		c0-5.9,4.7-10.8,11.2-10.8c6.9,0,7.8,5,16,5c8.1,0,14.4-5.9,14.4-14.1C287.4,50.4,273.9,40.6,257.1,40.6z"/>
	<path class="st0" d="M317.5,70.2c0-2,1.4-5.6,8.5-5.6c11.5,0,15.3,6.7,24.9,6.7c7.8,0,12.3-6.1,12.3-11.4
		c0-10.6-13.2-19.3-36.6-19.3c-22.4,0-37.9,13.9-37.9,29.6c0,33.7,47.4,25.6,47.4,35c0,2.3-2.2,4.9-11.4,4.9
		c-12.1,0-14.4-6.7-23.6-6.7c-7.4,0-12.8,5.2-12.8,12.3c0,11.2,15.1,18.7,37,18.7c22.2,0,40.9-11.5,40.9-30.6
		C366.2,72.3,317.5,79.9,317.5,70.2z"/>
	<path class="st0" d="M393.6,41.5c-8.1,0-15.1,7-15.1,15.1v62.6c0,8.1,7,15.1,15.1,15.1c8.3,0,15.1-7,15.1-15.1V56.7
		C408.7,48.6,401.9,41.5,393.6,41.5z"/>
	<path class="st0" d="M578.7,40.6c-26.5,0-47.6,20.4-47.6,46.7c0,26.3,20.9,47.1,47.6,47.1c26.5,0,47.8-20.9,47.8-47.1
		C626.5,61.2,605,40.6,578.7,40.6z M578.7,106.1c-10.5,0-18-8.7-18-18.7c0-9.9,7.9-18.2,18-18.2c10.3,0,18,8.3,18,18.2
		C596.7,97.4,589.2,106.1,578.7,106.1z"/>
	<path class="st0" d="M520.7,86.8l-0.3-44c0-1.1-1-1.9-2.1-1.7c-3.6,0.7-11.1,2.9-15.6,10.1c-8.2-6.4-18.5-10.1-29.8-10.1
		c-26.5,0-47.6,20.4-47.6,46.7c0,26.3,20.9,47.1,47.6,47.1c25.5,0,46.2-19.4,47.7-44.2l0.1,0l0-2.3c0-0.2,0-0.4,0-0.6
		C520.8,87.4,520.7,87.1,520.7,86.8z M473,106.5c-10.5,0-18-8.7-18-18.7c0-9.9,7.9-18.2,18-18.2c10.3,0,18,8.3,18,18.2
		C491,97.9,483.4,106.5,473,106.5z"/>
	<path class="st0" d="M506.7,134.5l-53.6,16.4c-11.9,3.6-18.5,16.2-14.9,28v0c0.4,1.4,1.9,2.1,3.2,1.7l53.6-16.4
		c11.9-3.6,18.5-16.2,14.9-28C509.5,134.8,508.1,134.1,506.7,134.5z"/>
	<path class="st0" d="M393.6,0c-8.4,0-15.1,6.8-15.1,15.1s6.8,15.1,15.1,15.1s15.1-6.8,15.1-15.1S401.9,0,393.6,0z"/>
</g>
<text transform="matrix(1 0 0 1 1.220703e-04 187.4058)" class="st1 st2 st3">kurumsal</text>
</svg>
